<?xml version="1.0" standalone="no"?>
<svg xmlns="http://www.w3.org/2000/svg" width="512" height="512" xmlns:xlink="http://www.w3.org/1999/xlink" viewBox="0 0 512 512"><defs><clipPath id="clip-path-background-color-7"><rect x="0" y="0" width="512" height="512"/></clipPath><clipPath id="clip-path-dot-color-7"><rect x="151" y="52" width="11" height="11" transform="rotate(0,156.5,57.5)"/><rect x="173" y="52" width="11" height="11" transform="rotate(0,178.5,57.5)"/><rect x="184" y="52" width="11" height="11" transform="rotate(0,189.5,57.5)"/><rect x="206" y="52" width="11" height="11" transform="rotate(0,211.5,57.5)"/><rect x="261" y="52" width="11" height="11" transform="rotate(0,266.5,57.5)"/><rect x="272" y="52" width="11" height="11" transform="rotate(0,277.5,57.5)"/><rect x="294" y="52" width="11" height="11" transform="rotate(0,299.5,57.5)"/><rect x="305" y="52" width="11" height="11" transform="rotate(0,310.5,57.5)"/><rect x="140" y="63" width="11" height="11" transform="rotate(0,145.5,68.5)"/><rect x="151" y="63" width="11" height="11" transform="rotate(0,156.5,68.5)"/><rect x="162" y="63" width="11" height="11" transform="rotate(0,167.5,68.5)"/><rect x="173" y="63" width="11" height="11" transform="rotate(0,178.5,68.5)"/><rect x="206" y="63" width="11" height="11" transform="rotate(0,211.5,68.5)"/><rect x="228" y="63" width="11" height="11" transform="rotate(0,233.5,68.5)"/><rect x="272" y="63" width="11" height="11" transform="rotate(0,277.5,68.5)"/><rect x="283" y="63" width="11" height="11" transform="rotate(0,288.5,68.5)"/><rect x="294" y="63" width="11" height="11" transform="rotate(0,299.5,68.5)"/><rect x="327" y="63" width="11" height="11" transform="rotate(0,332.5,68.5)"/><rect x="338" y="63" width="11" height="11" transform="rotate(0,343.5,68.5)"/><rect x="140" y="74" width="11" height="11" transform="rotate(0,145.5,79.5)"/><rect x="151" y="74" width="11" height="11" transform="rotate(0,156.5,79.5)"/><rect x="162" y="74" width="11" height="11" transform="rotate(0,167.5,79.5)"/><rect x="195" y="74" width="11" height="11" transform="rotate(0,200.5,79.5)"/><rect x="206" y="74" width="11" height="11" transform="rotate(0,211.5,79.5)"/><rect x="217" y="74" width="11" height="11" transform="rotate(0,222.5,79.5)"/><rect x="250" y="74" width="11" height="11" transform="rotate(0,255.5,79.5)"/><rect x="283" y="74" width="11" height="11" transform="rotate(0,288.5,79.5)"/><rect x="294" y="74" width="11" height="11" transform="rotate(0,299.5,79.5)"/><rect x="305" y="74" width="11" height="11" transform="rotate(0,310.5,79.5)"/><rect x="338" y="74" width="11" height="11" transform="rotate(0,343.5,79.5)"/><rect x="140" y="85" width="11" height="11" transform="rotate(0,145.5,90.5)"/><rect x="162" y="85" width="11" height="11" transform="rotate(0,167.5,90.5)"/><rect x="173" y="85" width="11" height="11" transform="rotate(0,178.5,90.5)"/><rect x="184" y="85" width="11" height="11" transform="rotate(0,189.5,90.5)"/><rect x="195" y="85" width="11" height="11" transform="rotate(0,200.5,90.5)"/><rect x="206" y="85" width="11" height="11" transform="rotate(0,211.5,90.5)"/><rect x="239" y="85" width="11" height="11" transform="rotate(0,244.5,90.5)"/><rect x="272" y="85" width="11" height="11" transform="rotate(0,277.5,90.5)"/><rect x="283" y="85" width="11" height="11" transform="rotate(0,288.5,90.5)"/><rect x="305" y="85" width="11" height="11" transform="rotate(0,310.5,90.5)"/><rect x="316" y="85" width="11" height="11" transform="rotate(0,321.5,90.5)"/><rect x="327" y="85" width="11" height="11" transform="rotate(0,332.5,90.5)"/><rect x="360" y="85" width="11" height="11" transform="rotate(0,365.5,90.5)"/><rect x="162" y="96" width="11" height="11" transform="rotate(0,167.5,101.5)"/><rect x="184" y="96" width="11" height="11" transform="rotate(0,189.5,101.5)"/><rect x="195" y="96" width="11" height="11" transform="rotate(0,200.5,101.5)"/><rect x="228" y="96" width="11" height="11" transform="rotate(0,233.5,101.5)"/><rect x="239" y="96" width="11" height="11" transform="rotate(0,244.5,101.5)"/><rect x="250" y="96" width="11" height="11" transform="rotate(0,255.5,101.5)"/><rect x="261" y="96" width="11" height="11" transform="rotate(0,266.5,101.5)"/><rect x="272" y="96" width="11" height="11" transform="rotate(0,277.5,101.5)"/><rect x="305" y="96" width="11" height="11" transform="rotate(0,310.5,101.5)"/><rect x="316" y="96" width="11" height="11" transform="rotate(0,321.5,101.5)"/><rect x="360" y="96" width="11" height="11" transform="rotate(0,365.5,101.5)"/><rect x="151" y="107" width="11" height="11" transform="rotate(0,156.5,112.5)"/><rect x="162" y="107" width="11" height="11" transform="rotate(0,167.5,112.5)"/><rect x="217" y="107" width="11" height="11" transform="rotate(0,222.5,112.5)"/><rect x="239" y="107" width="11" height="11" transform="rotate(0,244.5,112.5)"/><rect x="272" y="107" width="11" height="11" transform="rotate(0,277.5,112.5)"/><rect x="283" y="107" width="11" height="11" transform="rotate(0,288.5,112.5)"/><rect x="327" y="107" width="11" height="11" transform="rotate(0,332.5,112.5)"/><rect x="338" y="107" width="11" height="11" transform="rotate(0,343.5,112.5)"/><rect x="360" y="107" width="11" height="11" transform="rotate(0,365.5,112.5)"/><rect x="140" y="118" width="11" height="11" transform="rotate(0,145.5,123.5)"/><rect x="162" y="118" width="11" height="11" transform="rotate(0,167.5,123.5)"/><rect x="184" y="118" width="11" height="11" transform="rotate(0,189.5,123.5)"/><rect x="206" y="118" width="11" height="11" transform="rotate(0,211.5,123.5)"/><rect x="228" y="118" width="11" height="11" transform="rotate(0,233.5,123.5)"/><rect x="250" y="118" width="11" height="11" transform="rotate(0,255.5,123.5)"/><rect x="272" y="118" width="11" height="11" transform="rotate(0,277.5,123.5)"/><rect x="294" y="118" width="11" height="11" transform="rotate(0,299.5,123.5)"/><rect x="316" y="118" width="11" height="11" transform="rotate(0,321.5,123.5)"/><rect x="338" y="118" width="11" height="11" transform="rotate(0,343.5,123.5)"/><rect x="360" y="118" width="11" height="11" transform="rotate(0,365.5,123.5)"/><rect x="140" y="129" width="11" height="11" transform="rotate(0,145.5,134.5)"/><rect x="195" y="129" width="11" height="11" transform="rotate(0,200.5,134.5)"/><rect x="239" y="129" width="11" height="11" transform="rotate(0,244.5,134.5)"/><rect x="250" y="129" width="11" height="11" transform="rotate(0,255.5,134.5)"/><rect x="261" y="129" width="11" height="11" transform="rotate(0,266.5,134.5)"/><rect x="272" y="129" width="11" height="11" transform="rotate(0,277.5,134.5)"/><rect x="338" y="129" width="11" height="11" transform="rotate(0,343.5,134.5)"/><rect x="349" y="129" width="11" height="11" transform="rotate(0,354.5,134.5)"/><rect x="360" y="129" width="11" height="11" transform="rotate(0,365.5,134.5)"/><rect x="52" y="140" width="11" height="11" transform="rotate(0,57.5,145.5)"/><rect x="118" y="140" width="11" height="11" transform="rotate(0,123.5,145.5)"/><rect x="140" y="140" width="11" height="11" transform="rotate(0,145.5,145.5)"/><rect x="151" y="140" width="11" height="11" transform="rotate(0,156.5,145.5)"/><rect x="184" y="140" width="11" height="11" transform="rotate(0,189.5,145.5)"/><rect x="195" y="140" width="11" height="11" transform="rotate(0,200.5,145.5)"/><rect x="228" y="140" width="11" height="11" transform="rotate(0,233.5,145.5)"/><rect x="261" y="140" width="11" height="11" transform="rotate(0,266.5,145.5)"/><rect x="283" y="140" width="11" height="11" transform="rotate(0,288.5,145.5)"/><rect x="294" y="140" width="11" height="11" transform="rotate(0,299.5,145.5)"/><rect x="305" y="140" width="11" height="11" transform="rotate(0,310.5,145.5)"/><rect x="327" y="140" width="11" height="11" transform="rotate(0,332.5,145.5)"/><rect x="338" y="140" width="11" height="11" transform="rotate(0,343.5,145.5)"/><rect x="349" y="140" width="11" height="11" transform="rotate(0,354.5,145.5)"/><rect x="360" y="140" width="11" height="11" transform="rotate(0,365.5,145.5)"/><rect x="371" y="140" width="11" height="11" transform="rotate(0,376.5,145.5)"/><rect x="382" y="140" width="11" height="11" transform="rotate(0,387.5,145.5)"/><rect x="415" y="140" width="11" height="11" transform="rotate(0,420.5,145.5)"/><rect x="426" y="140" width="11" height="11" transform="rotate(0,431.5,145.5)"/><rect x="437" y="140" width="11" height="11" transform="rotate(0,442.5,145.5)"/><rect x="52" y="151" width="11" height="11" transform="rotate(0,57.5,156.5)"/><rect x="85" y="151" width="11" height="11" transform="rotate(0,90.5,156.5)"/><rect x="96" y="151" width="11" height="11" transform="rotate(0,101.5,156.5)"/><rect x="107" y="151" width="11" height="11" transform="rotate(0,112.5,156.5)"/><rect x="129" y="151" width="11" height="11" transform="rotate(0,134.5,156.5)"/><rect x="162" y="151" width="11" height="11" transform="rotate(0,167.5,156.5)"/><rect x="195" y="151" width="11" height="11" transform="rotate(0,200.5,156.5)"/><rect x="206" y="151" width="11" height="11" transform="rotate(0,211.5,156.5)"/><rect x="228" y="151" width="11" height="11" transform="rotate(0,233.5,156.5)"/><rect x="250" y="151" width="11" height="11" transform="rotate(0,255.5,156.5)"/><rect x="294" y="151" width="11" height="11" transform="rotate(0,299.5,156.5)"/><rect x="327" y="151" width="11" height="11" transform="rotate(0,332.5,156.5)"/><rect x="349" y="151" width="11" height="11" transform="rotate(0,354.5,156.5)"/><rect x="393" y="151" width="11" height="11" transform="rotate(0,398.5,156.5)"/><rect x="404" y="151" width="11" height="11" transform="rotate(0,409.5,156.5)"/><rect x="415" y="151" width="11" height="11" transform="rotate(0,420.5,156.5)"/><rect x="426" y="151" width="11" height="11" transform="rotate(0,431.5,156.5)"/><rect x="437" y="151" width="11" height="11" transform="rotate(0,442.5,156.5)"/><rect x="74" y="162" width="11" height="11" transform="rotate(0,79.5,167.5)"/><rect x="85" y="162" width="11" height="11" transform="rotate(0,90.5,167.5)"/><rect x="118" y="162" width="11" height="11" transform="rotate(0,123.5,167.5)"/><rect x="129" y="162" width="11" height="11" transform="rotate(0,134.5,167.5)"/><rect x="206" y="162" width="11" height="11" transform="rotate(0,211.5,167.5)"/><rect x="217" y="162" width="11" height="11" transform="rotate(0,222.5,167.5)"/><rect x="228" y="162" width="11" height="11" transform="rotate(0,233.5,167.5)"/><rect x="261" y="162" width="11" height="11" transform="rotate(0,266.5,167.5)"/><rect x="283" y="162" width="11" height="11" transform="rotate(0,288.5,167.5)"/><rect x="294" y="162" width="11" height="11" transform="rotate(0,299.5,167.5)"/><rect x="316" y="162" width="11" height="11" transform="rotate(0,321.5,167.5)"/><rect x="327" y="162" width="11" height="11" transform="rotate(0,332.5,167.5)"/><rect x="338" y="162" width="11" height="11" transform="rotate(0,343.5,167.5)"/><rect x="349" y="162" width="11" height="11" transform="rotate(0,354.5,167.5)"/><rect x="360" y="162" width="11" height="11" transform="rotate(0,365.5,167.5)"/><rect x="371" y="162" width="11" height="11" transform="rotate(0,376.5,167.5)"/><rect x="382" y="162" width="11" height="11" transform="rotate(0,387.5,167.5)"/><rect x="426" y="162" width="11" height="11" transform="rotate(0,431.5,167.5)"/><rect x="437" y="162" width="11" height="11" transform="rotate(0,442.5,167.5)"/><rect x="448" y="162" width="11" height="11" transform="rotate(0,453.5,167.5)"/><rect x="63" y="173" width="11" height="11" transform="rotate(0,68.5,178.5)"/><rect x="74" y="173" width="11" height="11" transform="rotate(0,79.5,178.5)"/><rect x="162" y="173" width="11" height="11" transform="rotate(0,167.5,178.5)"/><rect x="184" y="173" width="11" height="11" transform="rotate(0,189.5,178.5)"/><rect x="195" y="173" width="11" height="11" transform="rotate(0,200.5,178.5)"/><rect x="206" y="173" width="11" height="11" transform="rotate(0,211.5,178.5)"/><rect x="250" y="173" width="11" height="11" transform="rotate(0,255.5,178.5)"/><rect x="261" y="173" width="11" height="11" transform="rotate(0,266.5,178.5)"/><rect x="272" y="173" width="11" height="11" transform="rotate(0,277.5,178.5)"/><rect x="305" y="173" width="11" height="11" transform="rotate(0,310.5,178.5)"/><rect x="316" y="173" width="11" height="11" transform="rotate(0,321.5,178.5)"/><rect x="338" y="173" width="11" height="11" transform="rotate(0,343.5,178.5)"/><rect x="382" y="173" width="11" height="11" transform="rotate(0,387.5,178.5)"/><rect x="404" y="173" width="11" height="11" transform="rotate(0,409.5,178.5)"/><rect x="415" y="173" width="11" height="11" transform="rotate(0,420.5,178.5)"/><rect x="448" y="173" width="11" height="11" transform="rotate(0,453.5,178.5)"/><rect x="63" y="184" width="11" height="11" transform="rotate(0,68.5,189.5)"/><rect x="74" y="184" width="11" height="11" transform="rotate(0,79.5,189.5)"/><rect x="96" y="184" width="11" height="11" transform="rotate(0,101.5,189.5)"/><rect x="118" y="184" width="11" height="11" transform="rotate(0,123.5,189.5)"/><rect x="162" y="184" width="11" height="11" transform="rotate(0,167.5,189.5)"/><rect x="195" y="184" width="11" height="11" transform="rotate(0,200.5,189.5)"/><rect x="206" y="184" width="11" height="11" transform="rotate(0,211.5,189.5)"/><rect x="217" y="184" width="11" height="11" transform="rotate(0,222.5,189.5)"/><rect x="272" y="184" width="11" height="11" transform="rotate(0,277.5,189.5)"/><rect x="305" y="184" width="11" height="11" transform="rotate(0,310.5,189.5)"/><rect x="316" y="184" width="11" height="11" transform="rotate(0,321.5,189.5)"/><rect x="349" y="184" width="11" height="11" transform="rotate(0,354.5,189.5)"/><rect x="360" y="184" width="11" height="11" transform="rotate(0,365.5,189.5)"/><rect x="382" y="184" width="11" height="11" transform="rotate(0,387.5,189.5)"/><rect x="393" y="184" width="11" height="11" transform="rotate(0,398.5,189.5)"/><rect x="448" y="184" width="11" height="11" transform="rotate(0,453.5,189.5)"/><rect x="74" y="195" width="11" height="11" transform="rotate(0,79.5,200.5)"/><rect x="96" y="195" width="11" height="11" transform="rotate(0,101.5,200.5)"/><rect x="107" y="195" width="11" height="11" transform="rotate(0,112.5,200.5)"/><rect x="129" y="195" width="11" height="11" transform="rotate(0,134.5,200.5)"/><rect x="140" y="195" width="11" height="11" transform="rotate(0,145.5,200.5)"/><rect x="151" y="195" width="11" height="11" transform="rotate(0,156.5,200.5)"/><rect x="162" y="195" width="11" height="11" transform="rotate(0,167.5,200.5)"/><rect x="217" y="195" width="11" height="11" transform="rotate(0,222.5,200.5)"/><rect x="228" y="195" width="11" height="11" transform="rotate(0,233.5,200.5)"/><rect x="250" y="195" width="11" height="11" transform="rotate(0,255.5,200.5)"/><rect x="261" y="195" width="11" height="11" transform="rotate(0,266.5,200.5)"/><rect x="272" y="195" width="11" height="11" transform="rotate(0,277.5,200.5)"/><rect x="283" y="195" width="11" height="11" transform="rotate(0,288.5,200.5)"/><rect x="294" y="195" width="11" height="11" transform="rotate(0,299.5,200.5)"/><rect x="305" y="195" width="11" height="11" transform="rotate(0,310.5,200.5)"/><rect x="349" y="195" width="11" height="11" transform="rotate(0,354.5,200.5)"/><rect x="360" y="195" width="11" height="11" transform="rotate(0,365.5,200.5)"/><rect x="371" y="195" width="11" height="11" transform="rotate(0,376.5,200.5)"/><rect x="393" y="195" width="11" height="11" transform="rotate(0,398.5,200.5)"/><rect x="415" y="195" width="11" height="11" transform="rotate(0,420.5,200.5)"/><rect x="437" y="195" width="11" height="11" transform="rotate(0,442.5,200.5)"/><rect x="448" y="195" width="11" height="11" transform="rotate(0,453.5,200.5)"/><rect x="63" y="206" width="11" height="11" transform="rotate(0,68.5,211.5)"/><rect x="96" y="206" width="11" height="11" transform="rotate(0,101.5,211.5)"/><rect x="118" y="206" width="11" height="11" transform="rotate(0,123.5,211.5)"/><rect x="129" y="206" width="11" height="11" transform="rotate(0,134.5,211.5)"/><rect x="162" y="206" width="11" height="11" transform="rotate(0,167.5,211.5)"/><rect x="173" y="206" width="11" height="11" transform="rotate(0,178.5,211.5)"/><rect x="217" y="206" width="11" height="11" transform="rotate(0,222.5,211.5)"/><rect x="228" y="206" width="11" height="11" transform="rotate(0,233.5,211.5)"/><rect x="250" y="206" width="11" height="11" transform="rotate(0,255.5,211.5)"/><rect x="349" y="206" width="11" height="11" transform="rotate(0,354.5,211.5)"/><rect x="393" y="206" width="11" height="11" transform="rotate(0,398.5,211.5)"/><rect x="404" y="206" width="11" height="11" transform="rotate(0,409.5,211.5)"/><rect x="415" y="206" width="11" height="11" transform="rotate(0,420.5,211.5)"/><rect x="437" y="206" width="11" height="11" transform="rotate(0,442.5,211.5)"/><rect x="448" y="206" width="11" height="11" transform="rotate(0,453.5,211.5)"/><rect x="96" y="217" width="11" height="11" transform="rotate(0,101.5,222.5)"/><rect x="129" y="217" width="11" height="11" transform="rotate(0,134.5,222.5)"/><rect x="162" y="217" width="11" height="11" transform="rotate(0,167.5,222.5)"/><rect x="184" y="217" width="11" height="11" transform="rotate(0,189.5,222.5)"/><rect x="195" y="217" width="11" height="11" transform="rotate(0,200.5,222.5)"/><rect x="206" y="217" width="11" height="11" transform="rotate(0,211.5,222.5)"/><rect x="217" y="217" width="11" height="11" transform="rotate(0,222.5,222.5)"/><rect x="228" y="217" width="11" height="11" transform="rotate(0,233.5,222.5)"/><rect x="261" y="217" width="11" height="11" transform="rotate(0,266.5,222.5)"/><rect x="294" y="217" width="11" height="11" transform="rotate(0,299.5,222.5)"/><rect x="305" y="217" width="11" height="11" transform="rotate(0,310.5,222.5)"/><rect x="338" y="217" width="11" height="11" transform="rotate(0,343.5,222.5)"/><rect x="349" y="217" width="11" height="11" transform="rotate(0,354.5,222.5)"/><rect x="393" y="217" width="11" height="11" transform="rotate(0,398.5,222.5)"/><rect x="415" y="217" width="11" height="11" transform="rotate(0,420.5,222.5)"/><rect x="426" y="217" width="11" height="11" transform="rotate(0,431.5,222.5)"/><rect x="437" y="217" width="11" height="11" transform="rotate(0,442.5,222.5)"/><rect x="448" y="217" width="11" height="11" transform="rotate(0,453.5,222.5)"/><rect x="74" y="228" width="11" height="11" transform="rotate(0,79.5,233.5)"/><rect x="85" y="228" width="11" height="11" transform="rotate(0,90.5,233.5)"/><rect x="118" y="228" width="11" height="11" transform="rotate(0,123.5,233.5)"/><rect x="129" y="228" width="11" height="11" transform="rotate(0,134.5,233.5)"/><rect x="151" y="228" width="11" height="11" transform="rotate(0,156.5,233.5)"/><rect x="184" y="228" width="11" height="11" transform="rotate(0,189.5,233.5)"/><rect x="195" y="228" width="11" height="11" transform="rotate(0,200.5,233.5)"/><rect x="217" y="228" width="11" height="11" transform="rotate(0,222.5,233.5)"/><rect x="250" y="228" width="11" height="11" transform="rotate(0,255.5,233.5)"/><rect x="272" y="228" width="11" height="11" transform="rotate(0,277.5,233.5)"/><rect x="294" y="228" width="11" height="11" transform="rotate(0,299.5,233.5)"/><rect x="305" y="228" width="11" height="11" transform="rotate(0,310.5,233.5)"/><rect x="316" y="228" width="11" height="11" transform="rotate(0,321.5,233.5)"/><rect x="338" y="228" width="11" height="11" transform="rotate(0,343.5,233.5)"/><rect x="371" y="228" width="11" height="11" transform="rotate(0,376.5,233.5)"/><rect x="382" y="228" width="11" height="11" transform="rotate(0,387.5,233.5)"/><rect x="393" y="228" width="11" height="11" transform="rotate(0,398.5,233.5)"/><rect x="404" y="228" width="11" height="11" transform="rotate(0,409.5,233.5)"/><rect x="426" y="228" width="11" height="11" transform="rotate(0,431.5,233.5)"/><rect x="448" y="228" width="11" height="11" transform="rotate(0,453.5,233.5)"/><rect x="52" y="239" width="11" height="11" transform="rotate(0,57.5,244.5)"/><rect x="63" y="239" width="11" height="11" transform="rotate(0,68.5,244.5)"/><rect x="96" y="239" width="11" height="11" transform="rotate(0,101.5,244.5)"/><rect x="129" y="239" width="11" height="11" transform="rotate(0,134.5,244.5)"/><rect x="140" y="239" width="11" height="11" transform="rotate(0,145.5,244.5)"/><rect x="173" y="239" width="11" height="11" transform="rotate(0,178.5,244.5)"/><rect x="206" y="239" width="11" height="11" transform="rotate(0,211.5,244.5)"/><rect x="228" y="239" width="11" height="11" transform="rotate(0,233.5,244.5)"/><rect x="294" y="239" width="11" height="11" transform="rotate(0,299.5,244.5)"/><rect x="305" y="239" width="11" height="11" transform="rotate(0,310.5,244.5)"/><rect x="338" y="239" width="11" height="11" transform="rotate(0,343.5,244.5)"/><rect x="360" y="239" width="11" height="11" transform="rotate(0,365.5,244.5)"/><rect x="393" y="239" width="11" height="11" transform="rotate(0,398.5,244.5)"/><rect x="437" y="239" width="11" height="11" transform="rotate(0,442.5,244.5)"/><rect x="52" y="250" width="11" height="11" transform="rotate(0,57.5,255.5)"/><rect x="74" y="250" width="11" height="11" transform="rotate(0,79.5,255.5)"/><rect x="85" y="250" width="11" height="11" transform="rotate(0,90.5,255.5)"/><rect x="96" y="250" width="11" height="11" transform="rotate(0,101.5,255.5)"/><rect x="107" y="250" width="11" height="11" transform="rotate(0,112.5,255.5)"/><rect x="118" y="250" width="11" height="11" transform="rotate(0,123.5,255.5)"/><rect x="129" y="250" width="11" height="11" transform="rotate(0,134.5,255.5)"/><rect x="140" y="250" width="11" height="11" transform="rotate(0,145.5,255.5)"/><rect x="162" y="250" width="11" height="11" transform="rotate(0,167.5,255.5)"/><rect x="173" y="250" width="11" height="11" transform="rotate(0,178.5,255.5)"/><rect x="184" y="250" width="11" height="11" transform="rotate(0,189.5,255.5)"/><rect x="195" y="250" width="11" height="11" transform="rotate(0,200.5,255.5)"/><rect x="228" y="250" width="11" height="11" transform="rotate(0,233.5,255.5)"/><rect x="239" y="250" width="11" height="11" transform="rotate(0,244.5,255.5)"/><rect x="261" y="250" width="11" height="11" transform="rotate(0,266.5,255.5)"/><rect x="294" y="250" width="11" height="11" transform="rotate(0,299.5,255.5)"/><rect x="305" y="250" width="11" height="11" transform="rotate(0,310.5,255.5)"/><rect x="349" y="250" width="11" height="11" transform="rotate(0,354.5,255.5)"/><rect x="360" y="250" width="11" height="11" transform="rotate(0,365.5,255.5)"/><rect x="371" y="250" width="11" height="11" transform="rotate(0,376.5,255.5)"/><rect x="382" y="250" width="11" height="11" transform="rotate(0,387.5,255.5)"/><rect x="393" y="250" width="11" height="11" transform="rotate(0,398.5,255.5)"/><rect x="415" y="250" width="11" height="11" transform="rotate(0,420.5,255.5)"/><rect x="448" y="250" width="11" height="11" transform="rotate(0,453.5,255.5)"/><rect x="52" y="261" width="11" height="11" transform="rotate(0,57.5,266.5)"/><rect x="63" y="261" width="11" height="11" transform="rotate(0,68.5,266.5)"/><rect x="85" y="261" width="11" height="11" transform="rotate(0,90.5,266.5)"/><rect x="107" y="261" width="11" height="11" transform="rotate(0,112.5,266.5)"/><rect x="129" y="261" width="11" height="11" transform="rotate(0,134.5,266.5)"/><rect x="140" y="261" width="11" height="11" transform="rotate(0,145.5,266.5)"/><rect x="151" y="261" width="11" height="11" transform="rotate(0,156.5,266.5)"/><rect x="162" y="261" width="11" height="11" transform="rotate(0,167.5,266.5)"/><rect x="195" y="261" width="11" height="11" transform="rotate(0,200.5,266.5)"/><rect x="217" y="261" width="11" height="11" transform="rotate(0,222.5,266.5)"/><rect x="228" y="261" width="11" height="11" transform="rotate(0,233.5,266.5)"/><rect x="338" y="261" width="11" height="11" transform="rotate(0,343.5,266.5)"/><rect x="360" y="261" width="11" height="11" transform="rotate(0,365.5,266.5)"/><rect x="404" y="261" width="11" height="11" transform="rotate(0,409.5,266.5)"/><rect x="415" y="261" width="11" height="11" transform="rotate(0,420.5,266.5)"/><rect x="448" y="261" width="11" height="11" transform="rotate(0,453.5,266.5)"/><rect x="52" y="272" width="11" height="11" transform="rotate(0,57.5,277.5)"/><rect x="63" y="272" width="11" height="11" transform="rotate(0,68.5,277.5)"/><rect x="85" y="272" width="11" height="11" transform="rotate(0,90.5,277.5)"/><rect x="96" y="272" width="11" height="11" transform="rotate(0,101.5,277.5)"/><rect x="118" y="272" width="11" height="11" transform="rotate(0,123.5,277.5)"/><rect x="140" y="272" width="11" height="11" transform="rotate(0,145.5,277.5)"/><rect x="184" y="272" width="11" height="11" transform="rotate(0,189.5,277.5)"/><rect x="206" y="272" width="11" height="11" transform="rotate(0,211.5,277.5)"/><rect x="239" y="272" width="11" height="11" transform="rotate(0,244.5,277.5)"/><rect x="294" y="272" width="11" height="11" transform="rotate(0,299.5,277.5)"/><rect x="316" y="272" width="11" height="11" transform="rotate(0,321.5,277.5)"/><rect x="327" y="272" width="11" height="11" transform="rotate(0,332.5,277.5)"/><rect x="338" y="272" width="11" height="11" transform="rotate(0,343.5,277.5)"/><rect x="349" y="272" width="11" height="11" transform="rotate(0,354.5,277.5)"/><rect x="371" y="272" width="11" height="11" transform="rotate(0,376.5,277.5)"/><rect x="382" y="272" width="11" height="11" transform="rotate(0,387.5,277.5)"/><rect x="404" y="272" width="11" height="11" transform="rotate(0,409.5,277.5)"/><rect x="415" y="272" width="11" height="11" transform="rotate(0,420.5,277.5)"/><rect x="426" y="272" width="11" height="11" transform="rotate(0,431.5,277.5)"/><rect x="63" y="283" width="11" height="11" transform="rotate(0,68.5,288.5)"/><rect x="129" y="283" width="11" height="11" transform="rotate(0,134.5,288.5)"/><rect x="162" y="283" width="11" height="11" transform="rotate(0,167.5,288.5)"/><rect x="173" y="283" width="11" height="11" transform="rotate(0,178.5,288.5)"/><rect x="184" y="283" width="11" height="11" transform="rotate(0,189.5,288.5)"/><rect x="195" y="283" width="11" height="11" transform="rotate(0,200.5,288.5)"/><rect x="217" y="283" width="11" height="11" transform="rotate(0,222.5,288.5)"/><rect x="239" y="283" width="11" height="11" transform="rotate(0,244.5,288.5)"/><rect x="261" y="283" width="11" height="11" transform="rotate(0,266.5,288.5)"/><rect x="294" y="283" width="11" height="11" transform="rotate(0,299.5,288.5)"/><rect x="305" y="283" width="11" height="11" transform="rotate(0,310.5,288.5)"/><rect x="327" y="283" width="11" height="11" transform="rotate(0,332.5,288.5)"/><rect x="338" y="283" width="11" height="11" transform="rotate(0,343.5,288.5)"/><rect x="349" y="283" width="11" height="11" transform="rotate(0,354.5,288.5)"/><rect x="360" y="283" width="11" height="11" transform="rotate(0,365.5,288.5)"/><rect x="404" y="283" width="11" height="11" transform="rotate(0,409.5,288.5)"/><rect x="426" y="283" width="11" height="11" transform="rotate(0,431.5,288.5)"/><rect x="437" y="283" width="11" height="11" transform="rotate(0,442.5,288.5)"/><rect x="52" y="294" width="11" height="11" transform="rotate(0,57.5,299.5)"/><rect x="96" y="294" width="11" height="11" transform="rotate(0,101.5,299.5)"/><rect x="118" y="294" width="11" height="11" transform="rotate(0,123.5,299.5)"/><rect x="129" y="294" width="11" height="11" transform="rotate(0,134.5,299.5)"/><rect x="140" y="294" width="11" height="11" transform="rotate(0,145.5,299.5)"/><rect x="162" y="294" width="11" height="11" transform="rotate(0,167.5,299.5)"/><rect x="173" y="294" width="11" height="11" transform="rotate(0,178.5,299.5)"/><rect x="184" y="294" width="11" height="11" transform="rotate(0,189.5,299.5)"/><rect x="195" y="294" width="11" height="11" transform="rotate(0,200.5,299.5)"/><rect x="206" y="294" width="11" height="11" transform="rotate(0,211.5,299.5)"/><rect x="217" y="294" width="11" height="11" transform="rotate(0,222.5,299.5)"/><rect x="228" y="294" width="11" height="11" transform="rotate(0,233.5,299.5)"/><rect x="239" y="294" width="11" height="11" transform="rotate(0,244.5,299.5)"/><rect x="272" y="294" width="11" height="11" transform="rotate(0,277.5,299.5)"/><rect x="283" y="294" width="11" height="11" transform="rotate(0,288.5,299.5)"/><rect x="294" y="294" width="11" height="11" transform="rotate(0,299.5,299.5)"/><rect x="327" y="294" width="11" height="11" transform="rotate(0,332.5,299.5)"/><rect x="338" y="294" width="11" height="11" transform="rotate(0,343.5,299.5)"/><rect x="349" y="294" width="11" height="11" transform="rotate(0,354.5,299.5)"/><rect x="360" y="294" width="11" height="11" transform="rotate(0,365.5,299.5)"/><rect x="371" y="294" width="11" height="11" transform="rotate(0,376.5,299.5)"/><rect x="393" y="294" width="11" height="11" transform="rotate(0,398.5,299.5)"/><rect x="404" y="294" width="11" height="11" transform="rotate(0,409.5,299.5)"/><rect x="415" y="294" width="11" height="11" transform="rotate(0,420.5,299.5)"/><rect x="448" y="294" width="11" height="11" transform="rotate(0,453.5,299.5)"/><rect x="52" y="305" width="11" height="11" transform="rotate(0,57.5,310.5)"/><rect x="96" y="305" width="11" height="11" transform="rotate(0,101.5,310.5)"/><rect x="107" y="305" width="11" height="11" transform="rotate(0,112.5,310.5)"/><rect x="140" y="305" width="11" height="11" transform="rotate(0,145.5,310.5)"/><rect x="151" y="305" width="11" height="11" transform="rotate(0,156.5,310.5)"/><rect x="239" y="305" width="11" height="11" transform="rotate(0,244.5,310.5)"/><rect x="250" y="305" width="11" height="11" transform="rotate(0,255.5,310.5)"/><rect x="261" y="305" width="11" height="11" transform="rotate(0,266.5,310.5)"/><rect x="272" y="305" width="11" height="11" transform="rotate(0,277.5,310.5)"/><rect x="294" y="305" width="11" height="11" transform="rotate(0,299.5,310.5)"/><rect x="305" y="305" width="11" height="11" transform="rotate(0,310.5,310.5)"/><rect x="316" y="305" width="11" height="11" transform="rotate(0,321.5,310.5)"/><rect x="338" y="305" width="11" height="11" transform="rotate(0,343.5,310.5)"/><rect x="360" y="305" width="11" height="11" transform="rotate(0,365.5,310.5)"/><rect x="371" y="305" width="11" height="11" transform="rotate(0,376.5,310.5)"/><rect x="393" y="305" width="11" height="11" transform="rotate(0,398.5,310.5)"/><rect x="404" y="305" width="11" height="11" transform="rotate(0,409.5,310.5)"/><rect x="415" y="305" width="11" height="11" transform="rotate(0,420.5,310.5)"/><rect x="52" y="316" width="11" height="11" transform="rotate(0,57.5,321.5)"/><rect x="63" y="316" width="11" height="11" transform="rotate(0,68.5,321.5)"/><rect x="74" y="316" width="11" height="11" transform="rotate(0,79.5,321.5)"/><rect x="85" y="316" width="11" height="11" transform="rotate(0,90.5,321.5)"/><rect x="96" y="316" width="11" height="11" transform="rotate(0,101.5,321.5)"/><rect x="118" y="316" width="11" height="11" transform="rotate(0,123.5,321.5)"/><rect x="129" y="316" width="11" height="11" transform="rotate(0,134.5,321.5)"/><rect x="140" y="316" width="11" height="11" transform="rotate(0,145.5,321.5)"/><rect x="151" y="316" width="11" height="11" transform="rotate(0,156.5,321.5)"/><rect x="195" y="316" width="11" height="11" transform="rotate(0,200.5,321.5)"/><rect x="217" y="316" width="11" height="11" transform="rotate(0,222.5,321.5)"/><rect x="239" y="316" width="11" height="11" transform="rotate(0,244.5,321.5)"/><rect x="272" y="316" width="11" height="11" transform="rotate(0,277.5,321.5)"/><rect x="283" y="316" width="11" height="11" transform="rotate(0,288.5,321.5)"/><rect x="305" y="316" width="11" height="11" transform="rotate(0,310.5,321.5)"/><rect x="316" y="316" width="11" height="11" transform="rotate(0,321.5,321.5)"/><rect x="327" y="316" width="11" height="11" transform="rotate(0,332.5,321.5)"/><rect x="349" y="316" width="11" height="11" transform="rotate(0,354.5,321.5)"/><rect x="382" y="316" width="11" height="11" transform="rotate(0,387.5,321.5)"/><rect x="404" y="316" width="11" height="11" transform="rotate(0,409.5,321.5)"/><rect x="437" y="316" width="11" height="11" transform="rotate(0,442.5,321.5)"/><rect x="448" y="316" width="11" height="11" transform="rotate(0,453.5,321.5)"/><rect x="52" y="327" width="11" height="11" transform="rotate(0,57.5,332.5)"/><rect x="63" y="327" width="11" height="11" transform="rotate(0,68.5,332.5)"/><rect x="96" y="327" width="11" height="11" transform="rotate(0,101.5,332.5)"/><rect x="107" y="327" width="11" height="11" transform="rotate(0,112.5,332.5)"/><rect x="162" y="327" width="11" height="11" transform="rotate(0,167.5,332.5)"/><rect x="173" y="327" width="11" height="11" transform="rotate(0,178.5,332.5)"/><rect x="250" y="327" width="11" height="11" transform="rotate(0,255.5,332.5)"/><rect x="272" y="327" width="11" height="11" transform="rotate(0,277.5,332.5)"/><rect x="283" y="327" width="11" height="11" transform="rotate(0,288.5,332.5)"/><rect x="305" y="327" width="11" height="11" transform="rotate(0,310.5,332.5)"/><rect x="327" y="327" width="11" height="11" transform="rotate(0,332.5,332.5)"/><rect x="349" y="327" width="11" height="11" transform="rotate(0,354.5,332.5)"/><rect x="371" y="327" width="11" height="11" transform="rotate(0,376.5,332.5)"/><rect x="393" y="327" width="11" height="11" transform="rotate(0,398.5,332.5)"/><rect x="52" y="338" width="11" height="11" transform="rotate(0,57.5,343.5)"/><rect x="74" y="338" width="11" height="11" transform="rotate(0,79.5,343.5)"/><rect x="96" y="338" width="11" height="11" transform="rotate(0,101.5,343.5)"/><rect x="118" y="338" width="11" height="11" transform="rotate(0,123.5,343.5)"/><rect x="140" y="338" width="11" height="11" transform="rotate(0,145.5,343.5)"/><rect x="217" y="338" width="11" height="11" transform="rotate(0,222.5,343.5)"/><rect x="228" y="338" width="11" height="11" transform="rotate(0,233.5,343.5)"/><rect x="239" y="338" width="11" height="11" transform="rotate(0,244.5,343.5)"/><rect x="250" y="338" width="11" height="11" transform="rotate(0,255.5,343.5)"/><rect x="261" y="338" width="11" height="11" transform="rotate(0,266.5,343.5)"/><rect x="283" y="338" width="11" height="11" transform="rotate(0,288.5,343.5)"/><rect x="316" y="338" width="11" height="11" transform="rotate(0,321.5,343.5)"/><rect x="338" y="338" width="11" height="11" transform="rotate(0,343.5,343.5)"/><rect x="349" y="338" width="11" height="11" transform="rotate(0,354.5,343.5)"/><rect x="415" y="338" width="11" height="11" transform="rotate(0,420.5,343.5)"/><rect x="426" y="338" width="11" height="11" transform="rotate(0,431.5,343.5)"/><rect x="437" y="338" width="11" height="11" transform="rotate(0,442.5,343.5)"/><rect x="448" y="338" width="11" height="11" transform="rotate(0,453.5,343.5)"/><rect x="52" y="349" width="11" height="11" transform="rotate(0,57.5,354.5)"/><rect x="129" y="349" width="11" height="11" transform="rotate(0,134.5,354.5)"/><rect x="140" y="349" width="11" height="11" transform="rotate(0,145.5,354.5)"/><rect x="162" y="349" width="11" height="11" transform="rotate(0,167.5,354.5)"/><rect x="184" y="349" width="11" height="11" transform="rotate(0,189.5,354.5)"/><rect x="206" y="349" width="11" height="11" transform="rotate(0,211.5,354.5)"/><rect x="228" y="349" width="11" height="11" transform="rotate(0,233.5,354.5)"/><rect x="250" y="349" width="11" height="11" transform="rotate(0,255.5,354.5)"/><rect x="261" y="349" width="11" height="11" transform="rotate(0,266.5,354.5)"/><rect x="305" y="349" width="11" height="11" transform="rotate(0,310.5,354.5)"/><rect x="338" y="349" width="11" height="11" transform="rotate(0,343.5,354.5)"/><rect x="349" y="349" width="11" height="11" transform="rotate(0,354.5,354.5)"/><rect x="371" y="349" width="11" height="11" transform="rotate(0,376.5,354.5)"/><rect x="382" y="349" width="11" height="11" transform="rotate(0,387.5,354.5)"/><rect x="404" y="349" width="11" height="11" transform="rotate(0,409.5,354.5)"/><rect x="415" y="349" width="11" height="11" transform="rotate(0,420.5,354.5)"/><rect x="426" y="349" width="11" height="11" transform="rotate(0,431.5,354.5)"/><rect x="448" y="349" width="11" height="11" transform="rotate(0,453.5,354.5)"/><rect x="52" y="360" width="11" height="11" transform="rotate(0,57.5,365.5)"/><rect x="74" y="360" width="11" height="11" transform="rotate(0,79.5,365.5)"/><rect x="107" y="360" width="11" height="11" transform="rotate(0,112.5,365.5)"/><rect x="118" y="360" width="11" height="11" transform="rotate(0,123.5,365.5)"/><rect x="140" y="360" width="11" height="11" transform="rotate(0,145.5,365.5)"/><rect x="162" y="360" width="11" height="11" transform="rotate(0,167.5,365.5)"/><rect x="184" y="360" width="11" height="11" transform="rotate(0,189.5,365.5)"/><rect x="206" y="360" width="11" height="11" transform="rotate(0,211.5,365.5)"/><rect x="217" y="360" width="11" height="11" transform="rotate(0,222.5,365.5)"/><rect x="228" y="360" width="11" height="11" transform="rotate(0,233.5,365.5)"/><rect x="239" y="360" width="11" height="11" transform="rotate(0,244.5,365.5)"/><rect x="261" y="360" width="11" height="11" transform="rotate(0,266.5,365.5)"/><rect x="294" y="360" width="11" height="11" transform="rotate(0,299.5,365.5)"/><rect x="305" y="360" width="11" height="11" transform="rotate(0,310.5,365.5)"/><rect x="316" y="360" width="11" height="11" transform="rotate(0,321.5,365.5)"/><rect x="327" y="360" width="11" height="11" transform="rotate(0,332.5,365.5)"/><rect x="338" y="360" width="11" height="11" transform="rotate(0,343.5,365.5)"/><rect x="349" y="360" width="11" height="11" transform="rotate(0,354.5,365.5)"/><rect x="360" y="360" width="11" height="11" transform="rotate(0,365.5,365.5)"/><rect x="371" y="360" width="11" height="11" transform="rotate(0,376.5,365.5)"/><rect x="382" y="360" width="11" height="11" transform="rotate(0,387.5,365.5)"/><rect x="393" y="360" width="11" height="11" transform="rotate(0,398.5,365.5)"/><rect x="404" y="360" width="11" height="11" transform="rotate(0,409.5,365.5)"/><rect x="415" y="360" width="11" height="11" transform="rotate(0,420.5,365.5)"/><rect x="140" y="371" width="11" height="11" transform="rotate(0,145.5,376.5)"/><rect x="162" y="371" width="11" height="11" transform="rotate(0,167.5,376.5)"/><rect x="173" y="371" width="11" height="11" transform="rotate(0,178.5,376.5)"/><rect x="184" y="371" width="11" height="11" transform="rotate(0,189.5,376.5)"/><rect x="206" y="371" width="11" height="11" transform="rotate(0,211.5,376.5)"/><rect x="217" y="371" width="11" height="11" transform="rotate(0,222.5,376.5)"/><rect x="261" y="371" width="11" height="11" transform="rotate(0,266.5,376.5)"/><rect x="294" y="371" width="11" height="11" transform="rotate(0,299.5,376.5)"/><rect x="305" y="371" width="11" height="11" transform="rotate(0,310.5,376.5)"/><rect x="360" y="371" width="11" height="11" transform="rotate(0,365.5,376.5)"/><rect x="404" y="371" width="11" height="11" transform="rotate(0,409.5,376.5)"/><rect x="437" y="371" width="11" height="11" transform="rotate(0,442.5,376.5)"/><rect x="162" y="382" width="11" height="11" transform="rotate(0,167.5,387.5)"/><rect x="184" y="382" width="11" height="11" transform="rotate(0,189.5,387.5)"/><rect x="195" y="382" width="11" height="11" transform="rotate(0,200.5,387.5)"/><rect x="206" y="382" width="11" height="11" transform="rotate(0,211.5,387.5)"/><rect x="217" y="382" width="11" height="11" transform="rotate(0,222.5,387.5)"/><rect x="239" y="382" width="11" height="11" transform="rotate(0,244.5,387.5)"/><rect x="250" y="382" width="11" height="11" transform="rotate(0,255.5,387.5)"/><rect x="261" y="382" width="11" height="11" transform="rotate(0,266.5,387.5)"/><rect x="283" y="382" width="11" height="11" transform="rotate(0,288.5,387.5)"/><rect x="294" y="382" width="11" height="11" transform="rotate(0,299.5,387.5)"/><rect x="305" y="382" width="11" height="11" transform="rotate(0,310.5,387.5)"/><rect x="316" y="382" width="11" height="11" transform="rotate(0,321.5,387.5)"/><rect x="338" y="382" width="11" height="11" transform="rotate(0,343.5,387.5)"/><rect x="360" y="382" width="11" height="11" transform="rotate(0,365.5,387.5)"/><rect x="382" y="382" width="11" height="11" transform="rotate(0,387.5,387.5)"/><rect x="404" y="382" width="11" height="11" transform="rotate(0,409.5,387.5)"/><rect x="437" y="382" width="11" height="11" transform="rotate(0,442.5,387.5)"/><rect x="448" y="382" width="11" height="11" transform="rotate(0,453.5,387.5)"/><rect x="162" y="393" width="11" height="11" transform="rotate(0,167.5,398.5)"/><rect x="184" y="393" width="11" height="11" transform="rotate(0,189.5,398.5)"/><rect x="217" y="393" width="11" height="11" transform="rotate(0,222.5,398.5)"/><rect x="228" y="393" width="11" height="11" transform="rotate(0,233.5,398.5)"/><rect x="272" y="393" width="11" height="11" transform="rotate(0,277.5,398.5)"/><rect x="294" y="393" width="11" height="11" transform="rotate(0,299.5,398.5)"/><rect x="305" y="393" width="11" height="11" transform="rotate(0,310.5,398.5)"/><rect x="349" y="393" width="11" height="11" transform="rotate(0,354.5,398.5)"/><rect x="360" y="393" width="11" height="11" transform="rotate(0,365.5,398.5)"/><rect x="404" y="393" width="11" height="11" transform="rotate(0,409.5,398.5)"/><rect x="448" y="393" width="11" height="11" transform="rotate(0,453.5,398.5)"/><rect x="162" y="404" width="11" height="11" transform="rotate(0,167.5,409.5)"/><rect x="206" y="404" width="11" height="11" transform="rotate(0,211.5,409.5)"/><rect x="250" y="404" width="11" height="11" transform="rotate(0,255.5,409.5)"/><rect x="294" y="404" width="11" height="11" transform="rotate(0,299.5,409.5)"/><rect x="305" y="404" width="11" height="11" transform="rotate(0,310.5,409.5)"/><rect x="316" y="404" width="11" height="11" transform="rotate(0,321.5,409.5)"/><rect x="338" y="404" width="11" height="11" transform="rotate(0,343.5,409.5)"/><rect x="349" y="404" width="11" height="11" transform="rotate(0,354.5,409.5)"/><rect x="360" y="404" width="11" height="11" transform="rotate(0,365.5,409.5)"/><rect x="371" y="404" width="11" height="11" transform="rotate(0,376.5,409.5)"/><rect x="382" y="404" width="11" height="11" transform="rotate(0,387.5,409.5)"/><rect x="393" y="404" width="11" height="11" transform="rotate(0,398.5,409.5)"/><rect x="404" y="404" width="11" height="11" transform="rotate(0,409.5,409.5)"/><rect x="426" y="404" width="11" height="11" transform="rotate(0,431.5,409.5)"/><rect x="437" y="404" width="11" height="11" transform="rotate(0,442.5,409.5)"/><rect x="448" y="404" width="11" height="11" transform="rotate(0,453.5,409.5)"/><rect x="173" y="415" width="11" height="11" transform="rotate(0,178.5,420.5)"/><rect x="195" y="415" width="11" height="11" transform="rotate(0,200.5,420.5)"/><rect x="272" y="415" width="11" height="11" transform="rotate(0,277.5,420.5)"/><rect x="338" y="415" width="11" height="11" transform="rotate(0,343.5,420.5)"/><rect x="371" y="415" width="11" height="11" transform="rotate(0,376.5,420.5)"/><rect x="382" y="415" width="11" height="11" transform="rotate(0,387.5,420.5)"/><rect x="448" y="415" width="11" height="11" transform="rotate(0,453.5,420.5)"/><rect x="151" y="426" width="11" height="11" transform="rotate(0,156.5,431.5)"/><rect x="162" y="426" width="11" height="11" transform="rotate(0,167.5,431.5)"/><rect x="173" y="426" width="11" height="11" transform="rotate(0,178.5,431.5)"/><rect x="184" y="426" width="11" height="11" transform="rotate(0,189.5,431.5)"/><rect x="206" y="426" width="11" height="11" transform="rotate(0,211.5,431.5)"/><rect x="239" y="426" width="11" height="11" transform="rotate(0,244.5,431.5)"/><rect x="250" y="426" width="11" height="11" transform="rotate(0,255.5,431.5)"/><rect x="272" y="426" width="11" height="11" transform="rotate(0,277.5,431.5)"/><rect x="294" y="426" width="11" height="11" transform="rotate(0,299.5,431.5)"/><rect x="338" y="426" width="11" height="11" transform="rotate(0,343.5,431.5)"/><rect x="371" y="426" width="11" height="11" transform="rotate(0,376.5,431.5)"/><rect x="426" y="426" width="11" height="11" transform="rotate(0,431.5,431.5)"/><rect x="437" y="426" width="11" height="11" transform="rotate(0,442.5,431.5)"/><rect x="448" y="426" width="11" height="11" transform="rotate(0,453.5,431.5)"/><rect x="151" y="437" width="11" height="11" transform="rotate(0,156.5,442.5)"/><rect x="162" y="437" width="11" height="11" transform="rotate(0,167.5,442.5)"/><rect x="184" y="437" width="11" height="11" transform="rotate(0,189.5,442.5)"/><rect x="195" y="437" width="11" height="11" transform="rotate(0,200.5,442.5)"/><rect x="206" y="437" width="11" height="11" transform="rotate(0,211.5,442.5)"/><rect x="217" y="437" width="11" height="11" transform="rotate(0,222.5,442.5)"/><rect x="228" y="437" width="11" height="11" transform="rotate(0,233.5,442.5)"/><rect x="261" y="437" width="11" height="11" transform="rotate(0,266.5,442.5)"/><rect x="272" y="437" width="11" height="11" transform="rotate(0,277.5,442.5)"/><rect x="305" y="437" width="11" height="11" transform="rotate(0,310.5,442.5)"/><rect x="338" y="437" width="11" height="11" transform="rotate(0,343.5,442.5)"/><rect x="349" y="437" width="11" height="11" transform="rotate(0,354.5,442.5)"/><rect x="360" y="437" width="11" height="11" transform="rotate(0,365.5,442.5)"/><rect x="404" y="437" width="11" height="11" transform="rotate(0,409.5,442.5)"/><rect x="415" y="437" width="11" height="11" transform="rotate(0,420.5,442.5)"/><rect x="448" y="437" width="11" height="11" transform="rotate(0,453.5,442.5)"/><rect x="140" y="448" width="11" height="11" transform="rotate(0,145.5,453.5)"/><rect x="195" y="448" width="11" height="11" transform="rotate(0,200.5,453.5)"/><rect x="228" y="448" width="11" height="11" transform="rotate(0,233.5,453.5)"/><rect x="250" y="448" width="11" height="11" transform="rotate(0,255.5,453.5)"/><rect x="261" y="448" width="11" height="11" transform="rotate(0,266.5,453.5)"/><rect x="272" y="448" width="11" height="11" transform="rotate(0,277.5,453.5)"/><rect x="305" y="448" width="11" height="11" transform="rotate(0,310.5,453.5)"/><rect x="316" y="448" width="11" height="11" transform="rotate(0,321.5,453.5)"/><rect x="338" y="448" width="11" height="11" transform="rotate(0,343.5,453.5)"/><rect x="360" y="448" width="11" height="11" transform="rotate(0,365.5,453.5)"/><rect x="382" y="448" width="11" height="11" transform="rotate(0,387.5,453.5)"/><rect x="393" y="448" width="11" height="11" transform="rotate(0,398.5,453.5)"/><rect x="426" y="448" width="11" height="11" transform="rotate(0,431.5,453.5)"/><rect x="448" y="448" width="11" height="11" transform="rotate(0,453.5,453.5)"/></clipPath><clipPath id="clip-path-corners-square-color-0-0-7"><path clip-rule="evenodd" d="M 52 52v 77h 77v -77zM 63 63h 55v 55h -55z" transform="rotate(0,90.5,90.5)"/></clipPath><clipPath id="clip-path-corners-dot-color-0-0-7"><rect x="74" y="74" width="33" height="33" transform="rotate(0,90.5,90.5)"/></clipPath><clipPath id="clip-path-corners-square-color-1-0-7"><path clip-rule="evenodd" d="M 382 52v 77h 77v -77zM 393 63h 55v 55h -55z" transform="rotate(90,420.5,90.5)"/></clipPath><clipPath id="clip-path-corners-dot-color-1-0-7"><rect x="404" y="74" width="33" height="33" transform="rotate(90,420.5,90.5)"/></clipPath><clipPath id="clip-path-corners-square-color-0-1-7"><path clip-rule="evenodd" d="M 52 382v 77h 77v -77zM 63 393h 55v 55h -55z" transform="rotate(-90,90.5,420.5)"/></clipPath><clipPath id="clip-path-corners-dot-color-0-1-7"><rect x="74" y="404" width="33" height="33" transform="rotate(-90,90.5,420.5)"/></clipPath></defs><rect x="0" y="0" height="512" width="512" clip-path="url('#clip-path-background-color-7')" fill="#ffffff"/><rect x="0" y="0" height="512" width="512" clip-path="url('#clip-path-dot-color-7')" fill="#000000"/><rect x="52" y="52" height="77" width="77" clip-path="url('#clip-path-corners-square-color-0-0-7')" fill="#000000"/><rect x="74" y="74" height="33" width="33" clip-path="url('#clip-path-corners-dot-color-0-0-7')" fill="#000000"/><rect x="382" y="52" height="77" width="77" clip-path="url('#clip-path-corners-square-color-1-0-7')" fill="#000000"/><rect x="404" y="74" height="33" width="33" clip-path="url('#clip-path-corners-dot-color-1-0-7')" fill="#000000"/><rect x="52" y="382" height="77" width="77" clip-path="url('#clip-path-corners-square-color-0-1-7')" fill="#000000"/><rect x="74" y="404" height="33" width="33" clip-path="url('#clip-path-corners-dot-color-0-1-7')" fill="#000000"/></svg>